<mxfile host="app.diagrams.net" modified="2022-02-07T12:58:23.964Z" agent="5.0 (Windows NT 10.0; Win64; x64) AppleWebKit/537.36 (KHTML, like Gecko) Chrome/97.0.4692.99 Safari/537.36" etag="DQ24NlpR3xb35KNuwcXm" version="16.5.3" type="github">
  <diagram id="PR5A2xKl6tRtxUj8g2oj" name="Page-1">
    <mxGraphModel dx="714" dy="488" grid="1" gridSize="10" guides="1" tooltips="1" connect="1" arrows="1" fold="1" page="1" pageScale="1" pageWidth="827" pageHeight="1169" math="0" shadow="0">
      <root>
        <mxCell id="0" />
        <mxCell id="1" parent="0" />
        <mxCell id="4oT8NY6XmGWX67W5ZXdR-1" value="Collection:&lt;br&gt;Client" style="shape=cylinder3;whiteSpace=wrap;html=1;boundedLbl=1;backgroundOutline=1;size=15;" vertex="1" parent="1">
          <mxGeometry x="530" y="40" width="60" height="80" as="geometry" />
        </mxCell>
        <mxCell id="4oT8NY6XmGWX67W5ZXdR-2" value="Collection:&lt;br&gt;Product" style="shape=cylinder3;whiteSpace=wrap;html=1;boundedLbl=1;backgroundOutline=1;size=15;" vertex="1" parent="1">
          <mxGeometry x="530" y="230" width="60" height="80" as="geometry" />
        </mxCell>
        <mxCell id="4oT8NY6XmGWX67W5ZXdR-3" value="Collection:&lt;br&gt;Transaction" style="shape=cylinder3;whiteSpace=wrap;html=1;boundedLbl=1;backgroundOutline=1;size=15;" vertex="1" parent="1">
          <mxGeometry x="530" y="400" width="60" height="80" as="geometry" />
        </mxCell>
        <mxCell id="4oT8NY6XmGWX67W5ZXdR-6" value="Micro-Client" style="swimlane;" vertex="1" parent="1">
          <mxGeometry x="260" y="40" width="190" height="80" as="geometry" />
        </mxCell>
        <mxCell id="4oT8NY6XmGWX67W5ZXdR-7" value="Micro-Product" style="swimlane;" vertex="1" parent="1">
          <mxGeometry x="260" y="220" width="190" height="80" as="geometry" />
        </mxCell>
        <mxCell id="4oT8NY6XmGWX67W5ZXdR-8" value="Micro-Transaction" style="swimlane;" vertex="1" parent="1">
          <mxGeometry x="250" y="390" width="190" height="80" as="geometry" />
        </mxCell>
        <mxCell id="4oT8NY6XmGWX67W5ZXdR-9" value="ConfigServer" style="rhombus;whiteSpace=wrap;html=1;" vertex="1" parent="1">
          <mxGeometry x="90" y="200" width="80" height="80" as="geometry" />
        </mxCell>
        <mxCell id="4oT8NY6XmGWX67W5ZXdR-10" value="" style="endArrow=classic;html=1;rounded=0;fontColor=#FF142C;labelBackgroundColor=#FF142C;strokeColor=#FF3A24;" edge="1" parent="1" target="4oT8NY6XmGWX67W5ZXdR-1">
          <mxGeometry width="50" height="50" relative="1" as="geometry">
            <mxPoint x="450" y="90" as="sourcePoint" />
            <mxPoint x="520" y="70" as="targetPoint" />
          </mxGeometry>
        </mxCell>
        <mxCell id="4oT8NY6XmGWX67W5ZXdR-11" value="" style="endArrow=classic;html=1;rounded=0;fontColor=#FF142C;labelBackgroundColor=#FF142C;strokeColor=#FF3A24;" edge="1" parent="1">
          <mxGeometry width="50" height="50" relative="1" as="geometry">
            <mxPoint x="450" y="263.64" as="sourcePoint" />
            <mxPoint x="530" y="256.36727272727273" as="targetPoint" />
          </mxGeometry>
        </mxCell>
        <mxCell id="4oT8NY6XmGWX67W5ZXdR-12" value="" style="endArrow=classic;html=1;rounded=0;fontColor=#FF142C;labelBackgroundColor=#FF142C;strokeColor=#FF3A24;exitX=1;exitY=0.75;exitDx=0;exitDy=0;" edge="1" parent="1" source="4oT8NY6XmGWX67W5ZXdR-8">
          <mxGeometry width="50" height="50" relative="1" as="geometry">
            <mxPoint x="450" y="443.64" as="sourcePoint" />
            <mxPoint x="530" y="436.36727272727273" as="targetPoint" />
          </mxGeometry>
        </mxCell>
        <mxCell id="4oT8NY6XmGWX67W5ZXdR-13" value="" style="endArrow=classic;html=1;rounded=0;fontColor=#FF142C;labelBackgroundColor=#FF142C;strokeColor=#FF3A24;exitX=0;exitY=1;exitDx=0;exitDy=0;entryX=0.5;entryY=0;entryDx=0;entryDy=0;" edge="1" parent="1" source="4oT8NY6XmGWX67W5ZXdR-6" target="4oT8NY6XmGWX67W5ZXdR-9">
          <mxGeometry width="50" height="50" relative="1" as="geometry">
            <mxPoint x="180" y="177.26999999999998" as="sourcePoint" />
            <mxPoint x="260" y="169.99727272727273" as="targetPoint" />
          </mxGeometry>
        </mxCell>
        <mxCell id="4oT8NY6XmGWX67W5ZXdR-14" value="" style="endArrow=classic;html=1;rounded=0;fontColor=#FF142C;labelBackgroundColor=#FF142C;strokeColor=#FF3A24;exitX=0;exitY=0.25;exitDx=0;exitDy=0;entryX=1;entryY=0.5;entryDx=0;entryDy=0;" edge="1" parent="1" source="4oT8NY6XmGWX67W5ZXdR-7" target="4oT8NY6XmGWX67W5ZXdR-9">
          <mxGeometry width="50" height="50" relative="1" as="geometry">
            <mxPoint x="270" y="130" as="sourcePoint" />
            <mxPoint x="160.79999999999995" y="230.79999999999995" as="targetPoint" />
          </mxGeometry>
        </mxCell>
        <mxCell id="4oT8NY6XmGWX67W5ZXdR-15" value="" style="endArrow=classic;html=1;rounded=0;fontColor=#FF142C;labelBackgroundColor=#FF142C;strokeColor=#FF3A24;exitX=0;exitY=0;exitDx=0;exitDy=0;entryX=0.5;entryY=1;entryDx=0;entryDy=0;" edge="1" parent="1" source="4oT8NY6XmGWX67W5ZXdR-8" target="4oT8NY6XmGWX67W5ZXdR-9">
          <mxGeometry width="50" height="50" relative="1" as="geometry">
            <mxPoint x="270" y="250" as="sourcePoint" />
            <mxPoint x="170.79999999999995" y="240.79999999999995" as="targetPoint" />
          </mxGeometry>
        </mxCell>
      </root>
    </mxGraphModel>
  </diagram>
</mxfile>
